<svg xmlns="http://www.w3.org/2000/svg" width="39.526" height="27.261" viewBox="0 0 39.526 27.261">
  <g id="Group_8142" data-name="Group 8142" transform="translate(15007.574 6520.13)">
    <rect id="Rectangle_2868" data-name="Rectangle 2868" width="5.839" height="24.68" transform="translate(-15007.574 -6517.549)" fill="#2a2c4a"/>
    <path id="Path_19438" data-name="Path 19438" d="M345.293,21.76l.02.405c.008.146.015.292.015.44,0,4.51-3.991,5.457-7.339,5.457H330.65v-14.8l5.7.009a14.58,14.58,0,0,1,2.73.164l-.768-.888-1.736-2.008,4.574-1.482c-1.827-.821-4.681-.836-7.058-.833l-8.227.012V32.9h12.122c7.362,0,12.119-4.042,12.119-10.3v-.52l-2.44-1.451Z" transform="translate(-15322.956 -6525.771)" fill="#2a2c4a"/>
    <path id="Path_19439" data-name="Path 19439" d="M386,5.374l-5.107-.743L378.609,0l-2.286,4.632-5.107.743,3.7,3.605-.866,5.086,4.571-2.4,4.556,2.409L382.3,8.98Z" transform="translate(-15354.051 -6520.13)" fill="#2a2c4a"/>
  </g>
</svg>
