<svg id="Icon_ionic-ios-help-circle-outline" data-name="Icon ionic-ios-help-circle-outline" xmlns="http://www.w3.org/2000/svg" width="25" height="25" viewBox="0 0 25 25">
  <path id="Path_1276" data-name="Path 1276" d="M15.875,5.058a10.813,10.813,0,1,1-7.65,3.167,10.746,10.746,0,0,1,7.65-3.167m0-1.683a12.5,12.5,0,1,0,12.5,12.5,12.5,12.5,0,0,0-12.5-12.5Z" transform="translate(-3.375 -3.375)" fill="#FFBE27"/>
  <path id="Path_1277" data-name="Path 1277" d="M17.438,11.25c2.283,0,3.853,1.266,3.853,3.086a2.977,2.977,0,0,1-1.71,2.7c-1.059.615-1.418,1.065-1.418,1.844v.481H16.05l-.018-.523a2.534,2.534,0,0,1,1.437-2.678c1.029-.615,1.461-1,1.461-1.759a1.477,1.477,0,0,0-1.637-1.309,1.54,1.54,0,0,0-1.631,1.5H13.5C13.543,12.632,14.991,11.25,17.438,11.25Zm-1.6,10.433a1.307,1.307,0,1,1,1.3,1.254A1.275,1.275,0,0,1,15.837,21.683Z" transform="translate(-4.896 -4.594)" fill="#FFBE27"/>
</svg>
