<svg id="Component_17_1" data-name="Component 17 – 1" xmlns="http://www.w3.org/2000/svg" width="36.09" height="36.089" viewBox="0 0 36.09 36.089">
  <path id="Path_776" data-name="Path 776" d="M5704.977,0a18.045,18.045,0,1,0,18.045,18.045A18.044,18.044,0,0,0,5704.977,0" transform="translate(-5686.932)" fill="#383b64"/>
  <path id="Path_777" data-name="Path 777" d="M5796.756,150.312a1.319,1.319,0,0,0-1.853-.222l-3.5,2.75-3.542-2.754a1.319,1.319,0,0,0-1.6-.019l-3.756,2.782-3.429-2.751a1.32,1.32,0,0,0-1.76.1l-3.386,3.387a1.319,1.319,0,0,0,1.866,1.866l2.551-2.551,3.3,2.647a1.32,1.32,0,0,0,1.611.031l3.77-2.791,3.564,2.772a1.32,1.32,0,0,0,1.625,0l4.311-3.387a1.32,1.32,0,0,0,.222-1.853" transform="translate(-5767.104 -138.91)" fill="#e1e6ff" stroke="rgba(0,0,0,0)" stroke-width="1"/>
  <path id="Path_778" data-name="Path 778" d="M5796.756,264a1.319,1.319,0,0,0-1.853-.223l-3.5,2.75-3.542-2.754a1.319,1.319,0,0,0-1.6-.019l-3.756,2.782-3.429-2.751a1.32,1.32,0,0,0-1.76.1l-3.386,3.387a1.319,1.319,0,0,0,1.866,1.866l2.551-2.551,3.3,2.647a1.32,1.32,0,0,0,1.611.031l3.77-2.791,3.564,2.772a1.32,1.32,0,0,0,1.625,0l4.311-3.387a1.32,1.32,0,0,0,.222-1.853" transform="translate(-5767.104 -244.325)" fill="#e1e6ff" stroke="rgba(0,0,0,0)" stroke-width="1"/>
</svg>
