<svg id="Component_8_2" data-name="Component 8 – 2" xmlns="http://www.w3.org/2000/svg" width="36.09" height="36.089" viewBox="0 0 36.09 36.089">
  <path id="Path_754" data-name="Path 754" d="M18.045,0A18.045,18.045,0,1,0,36.09,18.045,18.045,18.045,0,0,0,18.045,0" fill="#383b64"/>
  <path id="Path_755" data-name="Path 755" d="M117.638,128.452a5.463,5.463,0,0,0-2.061-3.921,6.784,6.784,0,0,0-5.716-1.1,5.983,5.983,0,0,0-3.317,2.509,5.983,5.983,0,0,0-3.317-2.509,6.783,6.783,0,0,0-5.716,1.1,5.463,5.463,0,0,0-2.061,3.921,8,8,0,0,0,2.089,5.24,1.32,1.32,0,0,0,1.927-1.8,5.368,5.368,0,0,1-1.381-3.292,2.892,2.892,0,0,1,1.144-2.063,4.229,4.229,0,0,1,3.268-.567c1.2.347,2.116,1.439,2.714,3.248l.014,7.31-.007,3.521a1.32,1.32,0,0,0,1.317,1.322h.019a1.319,1.319,0,0,0,1.317-1.322l-.007-3.524.014-7.307c.6-1.809,1.51-2.9,2.714-3.248a4.235,4.235,0,0,1,3.268.567A2.894,2.894,0,0,1,115,128.586a5.353,5.353,0,0,1-1.383,3.306,1.32,1.32,0,0,0,1.931,1.8,8,8,0,0,0,2.088-5.24" transform="translate(-88.499 -114.24)" fill="#e1e6ff" stroke="rgba(0,0,0,0)" stroke-width="1"/>
</svg>
