<svg id="Component_10_1" data-name="Component 10 – 1" xmlns="http://www.w3.org/2000/svg" width="35.599" height="35.599" viewBox="0 0 35.599 35.599">
  <path id="Path_760" data-name="Path 760" d="M1723.878,0a17.8,17.8,0,1,0,17.8,17.8,17.8,17.8,0,0,0-17.8-17.8" transform="translate(-1706.078)" fill="#7257c4"/>
  <path id="Path_761" data-name="Path 761" d="M1843.785,136.92c-9.765-4.789-15.117,2.649-15.17,2.725a1.3,1.3,0,0,0,2.13,1.5,8.551,8.551,0,0,1,8.5-3.047,4.077,4.077,0,1,0,4.537-1.175m-1.434,5.294a1.476,1.476,0,1,1,.456-2.878c.034.014.068.026.1.037a1.475,1.475,0,0,1-.558,2.841" transform="translate(-1819.54 -125.605)" fill="#fff"/>
  <path id="Path_762" data-name="Path 762" d="M1845.87,231.743a1.3,1.3,0,0,0-1.812.309,8.55,8.55,0,0,1-8.5,3.047,4.077,4.077,0,1,0-4.536,1.176,14.317,14.317,0,0,0,6.328,1.607,11.4,11.4,0,0,0,8.841-4.333,1.3,1.3,0,0,0-.317-1.806m-13.419,2.189a1.468,1.468,0,0,1-.456-.073c-.033-.014-.067-.026-.1-.037a1.474,1.474,0,1,1,.557.11" transform="translate(-1819.531 -211.991)" fill="#fff"/>
</svg>
