<svg id="Component_16_1" data-name="Component 16 – 1" xmlns="http://www.w3.org/2000/svg" width="36.09" height="36.089" viewBox="0 0 36.09 36.089">
  <path id="Path_774" data-name="Path 774" d="M5136.282,0a18.045,18.045,0,1,0,18.045,18.045A18.045,18.045,0,0,0,5136.282,0" transform="translate(-5118.237)" fill="#383b64"/>
  <path id="Path_775" data-name="Path 775" d="M5205.178,116.668a4.767,4.767,0,0,0-3.506-1.6,5.323,5.323,0,0,0-4.478,2.358c-.124-.625-.228-1.237-.321-1.784a13.666,13.666,0,0,0-.866-3.5c-1.856-3.588-4.636-3.241-5.746-2.926a6.167,6.167,0,0,0-2.406,1.374,5.389,5.389,0,0,0-2.8-1.454,5.954,5.954,0,0,0-4.312,1.035,1.277,1.277,0,1,0,1.525,2.049,3.508,3.508,0,0,1,2.345-.568,3.411,3.411,0,0,1,2.087,1.478V121.5a1.277,1.277,0,1,0,2.554,0v-8.655a3.271,3.271,0,0,1,2.258-1.262q1.313-.035,2.227,1.733a14.684,14.684,0,0,1,.615,2.76,22.485,22.485,0,0,0,1.641,6.111,3.977,3.977,0,0,1-.789,1.644c-1.367.931-3.682,2.2-4.745,2.224a1.277,1.277,0,0,0,.028,2.554h.028c2.228-.048,5.583-2.289,6.231-2.738a1.239,1.239,0,0,0,.151-.122,4.875,4.875,0,0,0,.987-1.367,3.884,3.884,0,0,0,.49.251l.074.029c.373.132,3.708,1.244,6.017-.22a4.32,4.32,0,0,0,1.937-3.4,6.226,6.226,0,0,0-1.225-4.371m-1.315,4.1a1.791,1.791,0,0,1-.761,1.509c-1.048.669-3.076.213-3.763-.015a1.813,1.813,0,0,1-.635-.531,12.593,12.593,0,0,0,.168-1.574,2.711,2.711,0,0,1,2.7-2.539,2.21,2.21,0,0,1,1.652.694,3.713,3.713,0,0,1,.637,2.457" transform="translate(-5175.249 -100.774)" fill="#e1e6ff" stroke="rgba(0,0,0,0)" stroke-width="1"/>
</svg>
