<svg id="Component_11_1" data-name="Component 11 – 1" xmlns="http://www.w3.org/2000/svg" width="36.09" height="36.089" viewBox="0 0 36.09 36.089">
  <path id="Path_763" data-name="Path 763" d="M2292.816,0a18.045,18.045,0,1,0,18.045,18.045A18.045,18.045,0,0,0,2292.816,0" transform="translate(-2274.771)" fill="#383b64"/>
  <path id="Path_764" data-name="Path 764" d="M2423.615,129.873a1.319,1.319,0,1,0-2.636.13,2.658,2.658,0,0,1-.374,1.531c-.04.041-.094.1-.288.1a2.038,2.038,0,0,1-1.576-.476,2.714,2.714,0,0,1-.243-2.067,5.789,5.789,0,0,1,1.319-2.67c.3-.416.645-.888.972-1.432,1.085-1.808,1.664-2.986.947-6.16a5.3,5.3,0,0,0-2.329-3.161,6.413,6.413,0,0,0-5.1-.463c-2.967.78-3.654,4.326-3.564,7.141a4.358,4.358,0,1,0,2.693.682c-.13-1.6-.092-4.84,1.542-5.27a3.959,3.959,0,0,1,3.033.152,2.728,2.728,0,0,1,1.15,1.5c.519,2.3.228,2.782-.636,4.221-.267.445-.559.848-.844,1.238a8.264,8.264,0,0,0-1.792,3.808,5.016,5.016,0,0,0,.844,4.194,4.472,4.472,0,0,0,3.583,1.4,2.958,2.958,0,0,0,2.2-.917,5.152,5.152,0,0,0,1.1-3.48m-12.534-1.475a1.715,1.715,0,1,1,1.715-1.715,1.718,1.718,0,0,1-1.715,1.715" transform="translate(-2396.9 -106.568)" fill="#e1e6ff" stroke="rgba(0,0,0,0)" stroke-width="1"/>
</svg>
