<svg id="Component_13_1" data-name="Component 13 – 1" xmlns="http://www.w3.org/2000/svg" width="36.09" height="36.089" viewBox="0 0 36.09 36.089">
  <path id="Path_767" data-name="Path 767" d="M3430.2,0a18.045,18.045,0,1,0,18.044,18.045A18.045,18.045,0,0,0,3430.2,0" transform="translate(-3412.157)" fill="#383b64"/>
  <path id="Path_768" data-name="Path 768" d="M3529.212,288.917H3509.77a1.32,1.32,0,0,0,0,2.639h19.442a1.32,1.32,0,0,0,0-2.639" transform="translate(-3501.447 -267.902)" fill="#e1e6ff" stroke="rgba(0,0,0,0)" stroke-width="1"/>
  <path id="Path_769" data-name="Path 769" d="M3529.212,145.2h-3.1a6.778,6.778,0,0,0-13.514,0h-2.832a1.32,1.32,0,1,0,0,2.639h19.442a1.32,1.32,0,1,0,0-2.639m-13.921,0a4.1,4.1,0,0,1,8.135,0Z" transform="translate(-3501.447 -128.844)" fill="#e1e6ff" stroke="rgba(0,0,0,0)" stroke-width="1"/>
</svg>
