<svg id="Component_18_1" data-name="Component 18 – 1" xmlns="http://www.w3.org/2000/svg" width="36.089" height="36.089" viewBox="0 0 36.089 36.089">
  <path id="Path_779" data-name="Path 779" d="M6273.669,0a18.045,18.045,0,1,0,18.044,18.045A18.044,18.044,0,0,0,6273.669,0" transform="translate(-6255.625)" fill="#383b64"/>
  <path id="Path_780" data-name="Path 780" d="M6397.483,141.116h-3.755a9.668,9.668,0,0,1,2.6-4.737,1.319,1.319,0,0,0-1.781-1.946,12.072,12.072,0,0,0-3.489,6.683h-2.375a12.08,12.08,0,0,0-3.488-6.683,1.319,1.319,0,0,0-1.782,1.946,9.672,9.672,0,0,1,2.6,4.737h-3.739a1.32,1.32,0,1,0,0,2.639h3.729a9.711,9.711,0,0,1-2.651,4.688,1.319,1.319,0,1,0,1.916,1.815,11.947,11.947,0,0,0,3.415-6.5h2.388a11.945,11.945,0,0,0,3.414,6.5,1.32,1.32,0,0,0,1.916-1.815,9.7,9.7,0,0,1-2.651-4.688h3.745a1.32,1.32,0,0,0,0-2.639" transform="translate(-6371.828 -124.334)" fill="#e1e6ff" stroke="rgba(0,0,0,0)" stroke-width="1"/>
</svg>
