<svg id="Component_15_1" data-name="Component 15 – 1" xmlns="http://www.w3.org/2000/svg" width="36.09" height="36.089" viewBox="0 0 36.09 36.089">
  <path id="Path_772" data-name="Path 772" d="M4567.589,0a18.045,18.045,0,1,0,18.044,18.045A18.045,18.045,0,0,0,4567.589,0" transform="translate(-4549.544)" fill="#383b64"/>
  <path id="Path_773" data-name="Path 773" d="M4687.246,119.192l-.009-.012c-.012-.016-.025-.031-.039-.046s-.031-.035-.048-.052l-.021-.023a1.31,1.31,0,0,0-1.042-.379h-6.13a1.32,1.32,0,0,0,0,2.639h3.062l-5.763,5.8-2.264-2.251a1.32,1.32,0,1,0-1.861,1.871l2.263,2.252-6.23,6.265a1.32,1.32,0,1,0,1.871,1.861l6.231-6.265,2.258,2.247a1.32,1.32,0,0,0,1.862-1.871l-2.26-2.247,5.753-5.783v3.048a1.319,1.319,0,1,0,2.637,0v-6.132a.887.887,0,0,0,.007-.108,1.314,1.314,0,0,0-.278-.808" transform="translate(-4660.173 -110.043)" fill="#e1e6ff" stroke="rgba(0,0,0,0)" stroke-width="1"/>
</svg>
