<svg id="Component_14_1" data-name="Component 14 – 1" xmlns="http://www.w3.org/2000/svg" width="36.09" height="36.089" viewBox="0 0 36.09 36.089">
  <path id="Path_770" data-name="Path 770" d="M3998.9,0a18.045,18.045,0,1,0,18.044,18.045A18.045,18.045,0,0,0,3998.9,0" transform="translate(-3980.851)" fill="#383b64"/>
  <path id="Path_771" data-name="Path 771" d="M4082.035,123.472q-1.222-1.58-2.444-3.159a.986.986,0,0,0-1.739.472c-.02.159-.1.8-.2,1.6a1.419,1.419,0,0,1-1.667-1.165V109.6c0-1.55-1.417-2.633-3.446-2.633a5.21,5.21,0,0,0-2.966.887l-.053.039c-1.876-1.012-3.484-1.191-4.785-.532a3.519,3.519,0,0,0-.718.484c-1.823-.96-3.378-1.113-4.63-.452a4.6,4.6,0,0,0-2.116,3.629,1.315,1.315,0,0,0,1.222,1.4,1.329,1.329,0,0,0,1.411-1.216c.03-.376.246-1.231.722-1.478a2.388,2.388,0,0,1,1.9.323v11.265a1.32,1.32,0,0,0,2.64,0V111.071a1.983,1.983,0,0,1,.764-1.352,2.521,2.521,0,0,1,2.007.332v11.265a1.32,1.32,0,0,0,2.639,0V111s0,0,0-.006a1.171,1.171,0,0,1,.857-1.16,2.6,2.6,0,0,1,1.914-.073v11.559a1.186,1.186,0,0,0,.01.15,4.043,4.043,0,0,0,3.961,3.553l-.161,1.267a.826.826,0,0,0-.019.179.995.995,0,0,0,1.508.871.842.842,0,0,0,.16-.118l3.066-2.373a.988.988,0,0,0,.168-1.372" transform="translate(-4051.707 -99.19)" fill="#e1e6ff" stroke="rgba(0,0,0,0)" stroke-width="1"/>
</svg>
