<svg id="Component_9_2" data-name="Component 9 – 2" xmlns="http://www.w3.org/2000/svg" width="36.09" height="36.089" viewBox="0 0 36.09 36.089">
  <path id="Path_756" data-name="Path 756" d="M586.737,0a18.045,18.045,0,1,0,18.045,18.045A18.045,18.045,0,0,0,586.737,0" transform="translate(-568.692)" fill="#383b64"/>
  <path id="Path_757" data-name="Path 757" d="M694.408,115.027a4.884,4.884,0,0,0-3.574,1.284l-3.817,3.817H683.68l-3.817-3.817a4.884,4.884,0,0,0-3.574-1.284,1.32,1.32,0,1,0,.139,2.636,2.321,2.321,0,0,1,1.505.45l.043.045,3.283,3.283a7.126,7.126,0,1,0,8.2-.023l3.26-3.26.044-.045a2.3,2.3,0,0,1,1.513-.449,1.32,1.32,0,0,0,.132-2.636m-4.545,12.226a4.487,4.487,0,1,1-4.487-4.487,4.492,4.492,0,0,1,4.487,4.487" transform="translate(-667.48 -106.656)" fill="#e1e6ff" stroke="rgba(0,0,0,0)" stroke-width="1"/>
</svg>
