<svg id="Component_12_1" data-name="Component 12 – 1" xmlns="http://www.w3.org/2000/svg" width="36.09" height="36.089" viewBox="0 0 36.09 36.089">
  <path id="Path_765" data-name="Path 765" d="M2861.509,0a18.045,18.045,0,1,0,18.045,18.045A18.045,18.045,0,0,0,2861.509,0" transform="translate(-2843.464)" fill="#383b64"/>
  <path id="Path_766" data-name="Path 766" d="M2952.1,124.513c.241-2.185-.131-3.727-1.137-4.715a4.645,4.645,0,0,0-3.8-1.033v-.829c0-1.551-1.417-2.634-3.446-2.634a5.207,5.207,0,0,0-2.966.887l-.054.04c-1.875-1.012-3.484-1.191-4.784-.532a3.515,3.515,0,0,0-.718.484c-1.823-.96-3.379-1.113-4.63-.452a4.6,4.6,0,0,0-2.116,3.629,1.32,1.32,0,0,0,2.633.18c.03-.376.246-1.231.722-1.478a2.387,2.387,0,0,1,1.9.323v11.265a1.32,1.32,0,0,0,2.64,0V119.4a1.984,1.984,0,0,1,.764-1.351,2.523,2.523,0,0,1,2.008.332v11.265a1.319,1.319,0,1,0,2.639,0v-10.32s0,0,0-.006a1.171,1.171,0,0,1,.857-1.159,2.6,2.6,0,0,1,1.914-.074v11.559c0,.039,0,.079.005.118a2.608,2.608,0,0,0,.163.66,20.811,20.811,0,0,1-2.789,1.686,1.319,1.319,0,1,0,1.149,2.376,24.383,24.383,0,0,0,3.391-2.071,8.58,8.58,0,0,0,3.86,1.056c.031,0,.063,0,.094,0a1.32,1.32,0,0,0,.092-2.636,8.118,8.118,0,0,1-1.786-.3,10.282,10.282,0,0,0,3.4-6.022m-4.94,3.833v-6.93a2.7,2.7,0,0,1,1.954.266c.217.213.552.826.363,2.542a7.41,7.41,0,0,1-2.317,4.122" transform="translate(-2922.262 -106.915)" fill="#e1e6ff" stroke="rgba(0,0,0,0)" stroke-width="1"/>
</svg>
