<svg xmlns="http://www.w3.org/2000/svg" width="21.68" height="18.581" viewBox="0 0 21.68 18.581">
  <g id="Icon_ionic-ios-partly-sunny" data-name="Icon ionic-ios-partly-sunny" transform="translate(-1.445 -3.52)">
    <g id="Group_1521" data-name="Group 1521" transform="translate(1.445 3.52)">
      <path id="Path_715" data-name="Path 715" d="M11.432,4.5h-.014a.726.726,0,0,0-.724.724V6.612a.726.726,0,0,0,.724.724h.014a.726.726,0,0,0,.724-.724V5.224A.726.726,0,0,0,11.432,4.5Z" transform="translate(-3.838 -4.5)" fill="#9c7df6"/>
      <path id="Path_716" data-name="Path 716" d="M4.012,14.807v-.014a.726.726,0,0,0-.724-.724H1.849a.726.726,0,0,0-.724.724v.014a.726.726,0,0,0,.724.724H3.283A.727.727,0,0,0,4.012,14.807Z" transform="translate(-1.125 -7.214)" fill="#9c7df6"/>
      <path id="Path_717" data-name="Path 717" d="M4.995,9.313A.724.724,0,0,0,6.021,8.291l-.93-.939a.725.725,0,0,0-.513-.215h0a.726.726,0,0,0-.513,1.237Z" transform="translate(-2.076 -5.418)" fill="#9c7df6"/>
      <path id="Path_718" data-name="Path 718" d="M17.9,7.282a.725.725,0,0,0-.513-.215h0a.725.725,0,0,0-.513.215l-.93.935a.727.727,0,0,0,0,1.022l.014.014h0a.712.712,0,0,0,.495.2.725.725,0,0,0,.513-.215L17.9,8.3A.722.722,0,0,0,17.9,7.282Z" transform="translate(-5.175 -5.394)" fill="#9c7df6"/>
      <path id="Path_719" data-name="Path 719" d="M5.649,19.216h0a.725.725,0,0,0-.513.215l-.93.939a.724.724,0,1,0,1.026,1.022l.93-.939a.726.726,0,0,0-.513-1.237Z" transform="translate(-1.921 -8.581)" fill="#9c7df6"/>
    </g>
    <path id="Path_720" data-name="Path 720" d="M19.287,15.576h-.1a2.661,2.661,0,0,0-.361.016,4.509,4.509,0,0,0-6.065-3.223,4.439,4.439,0,0,0-.59.285,4.528,4.528,0,0,0-2.256,3.677c0,.084-.008.165-.008.249,0,.136.008.273.02.405,0,.016,0,.032,0,.044a3.076,3.076,0,0,0,.269,6.129h9.088a3.792,3.792,0,0,0,0-7.582Z" transform="translate(0.113 -1.057)" fill="#9c7df6"/>
    <path id="Path_721" data-name="Path 721" d="M9.572,17.423v-.016c-.016-.18-.026-.36-.026-.54,0-.111.005-.222.011-.334A6.071,6.071,0,0,1,12.586,11.6a5.69,5.69,0,0,1,.789-.381h.005a3.88,3.88,0,1,0-3.808,6.2Z" transform="translate(1.469 -3.839) rotate(10)" fill="#9c7df6"/>
  </g>
</svg>
