<svg xmlns="http://www.w3.org/2000/svg" width="112.432" height="27.52" viewBox="0 0 112.432 27.52">
  <g id="Group_7916" data-name="Group 7916" transform="translate(-207.037 -20.7)">
    <path id="Path_19248" data-name="Path 19248" d="M6.934,12.465h.255l1.386,9.168H5.568ZM4.346,8.936,0,28.814H4.506l.563-3.891H9.02l.617,3.891h4.516L9.855,8.936Z" transform="translate(207.037 18.919)" fill="#c7d0fe"/>
    <path id="Path_19249" data-name="Path 19249" d="M70.753,20.844a4.628,4.628,0,0,0-1.147-2.958,13.456,13.456,0,0,0-2.778-2.14c-1.551-.952-2.554-1.61-2.983-1.957a1.809,1.809,0,0,1-.638-1.494v-.211c.118-1.108.666-1.661,1.631-1.661,1.206,0,1.818.892,1.818,2.652v.252H70.75v-.3c0-2.636-1.013-4.449-3.012-5.391A6.378,6.378,0,0,0,65,7.056h-.267c-3.454.1-5.3,1.769-5.648,5.095a2.118,2.118,0,0,1-.051.512,5.8,5.8,0,0,0,1.427,4.02,24.851,24.851,0,0,0,3.647,2.623c1.754,1.119,2.608,2.119,2.608,3.058a2.4,2.4,0,0,1-.52,1.672,1.551,1.551,0,0,1-1.2.5h-.216c-1.227-.075-1.844-.787-1.844-2.117V20.964H58.85v2.124a4.25,4.25,0,0,0,1.816,3.634,6.8,6.8,0,0,0,4.066,1.18,6.282,6.282,0,0,0,4.635-1.679,6.02,6.02,0,0,0,1.412-4.393c0-.342-.01-.674-.026-.988" transform="translate(162.317 20.316)" fill="#c7d0fe"/>
    <path id="Path_19250" data-name="Path 19250" d="M111.53,8.936V12.7h3.729v16.11h4.467V12.7h3.842V8.936Z" transform="translate(122.281 18.919)" fill="#c7d0fe"/>
    <path id="Path_19251" data-name="Path 19251" d="M178.361,26.373l-.216-4.753a3.446,3.446,0,0,0-.779-1.7,1.893,1.893,0,0,0-1.512-.751h-.27l.172-.208a.529.529,0,0,1,.075-.077l.026-.018a4.129,4.129,0,0,0,1.9-1.741,6.446,6.446,0,0,0,.55-2.973v-.157c-.157-3.4-1.967-5.056-5.542-5.056H165.81V28.814h4.47V20.9h1.741a1.438,1.438,0,0,1,1.4.962,6.551,6.551,0,0,1,.358,2.461v2.263a5.88,5.88,0,0,0,.278,2.23h4.917v-.059c-.352-.221-.55-.985-.615-2.382m-6.345-8.9H170.28V12.3h.129a6.528,6.528,0,0,1,2.518.386c.635.278.959.934.959,1.947,0,1.885-.63,2.842-1.87,2.842" transform="translate(81.757 18.92)" fill="#c7d0fe"/>
    <path id="Path_19252" data-name="Path 19252" d="M232.745,8.553a6.2,6.2,0,0,0-4.421-1.5h-.216c-4.285,0-6.368,1.916-6.368,5.861v8.855a6.738,6.738,0,0,0,1.523,4.537c.91,1.06,2.484,1.595,4.681,1.595,2.292,0,3.922-.494,4.848-1.469a6.529,6.529,0,0,0,1.551-4.663V12.917a5.78,5.78,0,0,0-1.6-4.364m-2.922,13.062c0,1.939-.6,2.922-1.769,2.922a1.525,1.525,0,0,1-1.381-.828,3.67,3.67,0,0,1-.466-1.877V12.917l.054-.447c.157-1.283.738-1.973,1.731-2.047h.167c1.1,0,1.664.694,1.664,2.063Z" transform="translate(39.71 20.316)" fill="#c7d0fe"/>
    <rect id="Rectangle_2821" data-name="Rectangle 2821" width="6.019" height="25.438" transform="translate(279.338 22.781)" fill="#9c7df6"/>
    <path id="Path_19253" data-name="Path 19253" d="M345.891,22.176l.02.418c.008.151.016.3.016.454,0,4.649-4.114,5.625-7.564,5.625H330.8V13.418l5.873.009a15.029,15.029,0,0,1,2.814.169l-.791-.915L336.9,10.612l4.715-1.528c-1.883-.846-4.825-.861-7.275-.858l-8.48.012V33.66h12.494c7.589,0,12.492-4.167,12.492-10.615v-.536l-2.515-1.5Z" transform="translate(-35.72 14.56)" fill="#9c7df6"/>
    <path id="Path_19254" data-name="Path 19254" d="M385.24,5.1l-4.844-.7L378.228,0l-2.169,4.393-4.844.7,3.509,3.419-.822,4.824,4.336-2.28,4.322,2.285-.828-4.829Z" transform="translate(-65.771 20.7)" fill="#9c7df6"/>
  </g>
</svg>
