<svg xmlns="http://www.w3.org/2000/svg" width="22" height="15.802" viewBox="0 0 22 15.802">
  <g id="Group_2346" data-name="Group 2346" transform="translate(-83.825 -592.869)">
    <g id="Group_1538" data-name="Group 1538" transform="translate(83.825 592.869)">
      <path id="Union_1" data-name="Union 1" d="M1.781,15.179l.385-3.572a1.678,1.678,0,0,1,.327-3.073,4.929,4.929,0,0,1,.788-2.823L.22,4.64s-.577-.629.136-.979S11,0,11,0L21.728,3.7s.611.559,0,.909S11,8.417,11,8.417L4.332,6.08A4.581,4.581,0,0,0,3.48,8.54a1.678,1.678,0,0,1,.353,3.043l.425,3.6a2.147,2.147,0,0,1-1.337.622A1.437,1.437,0,0,1,1.781,15.179Z" transform="translate(0 0)" fill="#9c7df6"/>
      <path id="Path_703" data-name="Path 703" d="M9.681,15.177l5.928,2.029,5.945-2.029.2,3.008a1.938,1.938,0,0,1-1.527,2.063,12.148,12.148,0,0,1-10.347-.664,1.714,1.714,0,0,1-.407-1.564c.136-1.129.207-2.843.207-2.843" transform="translate(-4.607 -7.396)" fill="#9c7df6"/>
    </g>
  </g>
</svg>
