<svg xmlns="http://www.w3.org/2000/svg" width="21.659" height="21.445" viewBox="0 0 21.659 21.445">
  <g id="Group_7656" data-name="Group 7656" transform="translate(0.385 0)">
    <g id="Group_7657" data-name="Group 7657" transform="translate(-0.385 0)">
      <path id="Path_18998" data-name="Path 18998" d="M11.282,2.778C10.2,8.4,4.5,8.643,4.5,8.643c6.144.638,6.782,7.222,6.782,7.222s.638-6.584,6.782-7.222c0,0-5.7-.239-6.782-5.865" transform="translate(-4.5 1.39)" fill="#9c7df6"/>
      <path id="Path_18999" data-name="Path 18999" d="M15.637,0A3.713,3.713,0,0,1,12.2,2.967c3.108.323,3.432,3.654,3.432,3.654s.323-3.33,3.432-3.654A3.713,3.713,0,0,1,15.637,0" transform="translate(-0.741)" fill="#9c7df6"/>
      <path id="Path_19000" data-name="Path 19000" d="M17.059,10.341A4.7,4.7,0,0,1,12.716,14.1c3.934.409,4.343,4.624,4.343,4.624s.408-4.215,4.343-4.624a4.7,4.7,0,0,1-4.343-3.755" transform="translate(0.258 2.725)" fill="#9c7df6"/>
    </g>
  </g>
</svg>
