<svg xmlns="http://www.w3.org/2000/svg" width="19.557" height="15.645" viewBox="0 0 19.557 15.645">
  <path id="Icon_awesome-user-plus" data-name="Icon awesome-user-plus" d="M19.068,6.356H17.112V4.4a.49.49,0,0,0-.489-.489h-.978a.49.49,0,0,0-.489.489V6.356H13.2a.49.49,0,0,0-.489.489v.978a.49.49,0,0,0,.489.489h1.956v1.956a.49.49,0,0,0,.489.489h.978a.49.49,0,0,0,.489-.489V8.312h1.956a.49.49,0,0,0,.489-.489V6.845A.49.49,0,0,0,19.068,6.356ZM6.845,7.823A3.911,3.911,0,1,0,2.933,3.911,3.911,3.911,0,0,0,6.845,7.823ZM9.583,8.8h-.51a5.319,5.319,0,0,1-4.455,0h-.51A4.108,4.108,0,0,0,0,12.907v1.271a1.467,1.467,0,0,0,1.467,1.467H12.223a1.467,1.467,0,0,0,1.467-1.467V12.907A4.108,4.108,0,0,0,9.583,8.8Z" fill="#9c7df6"/>
</svg>
