<svg xmlns="http://www.w3.org/2000/svg" width="20.371" height="20.407" viewBox="0 0 20.371 20.407">
  <path id="Icon_feather-phone-call" data-name="Icon feather-phone-call" d="M14.807,5.1a4.5,4.5,0,0,1,3.554,3.554M14.807,1.5a8.1,8.1,0,0,1,7.152,7.143m-.9,7.179v2.7a1.8,1.8,0,0,1-1.961,1.8,17.8,17.8,0,0,1-7.764-2.762,17.543,17.543,0,0,1-5.4-5.4,17.8,17.8,0,0,1-2.762-7.8A1.8,1.8,0,0,1,4.965,2.4h2.7a1.8,1.8,0,0,1,1.8,1.547,11.551,11.551,0,0,0,.63,2.528,1.8,1.8,0,0,1-.4,1.9L8.546,9.516a14.394,14.394,0,0,0,5.4,5.4l1.143-1.143a1.8,1.8,0,0,1,1.9-.4,11.551,11.551,0,0,0,2.528.63A1.8,1.8,0,0,1,21.06,15.822Z" transform="translate(-2.417 -0.672)" fill="none" stroke="#c7d0fe" stroke-linecap="round" stroke-linejoin="round" stroke-width="1.5"/>
</svg>
