<svg xmlns="http://www.w3.org/2000/svg" width="20.811" height="18.204" viewBox="0 0 20.811 18.204">
  <g id="Icon_feather-image" data-name="Icon feather-image" transform="translate(-3.75 -3.75)">
    <path id="Path_19208" data-name="Path 19208" d="M6.611,4.5H21.389A1.982,1.982,0,0,1,23.5,6.321v12.75a1.982,1.982,0,0,1-2.111,1.821H6.611A1.982,1.982,0,0,1,4.5,19.072V6.321A1.982,1.982,0,0,1,6.611,4.5Z" fill="none" stroke="#c7d0fe" stroke-linecap="round" stroke-linejoin="round" stroke-width="1.5"/>
    <path id="Path_19209" data-name="Path 19209" d="M13.667,12.083A1.583,1.583,0,1,1,12.083,10.5,1.583,1.583,0,0,1,13.667,12.083Z" transform="translate(-1.778 -2.473)" fill="none" stroke="#c7d0fe" stroke-linecap="round" stroke-linejoin="round" stroke-width="1.5"/>
    <path id="Path_19210" data-name="Path 19210" d="M24.389,20.278,19.111,15,7.5,26.611" transform="translate(-0.889 -5.718)" fill="none" stroke="#c7d0fe" stroke-linecap="round" stroke-linejoin="round" stroke-width="1.5"/>
  </g>
</svg>
