<svg xmlns="http://www.w3.org/2000/svg" width="28.285" height="16.806" viewBox="0 0 28.285 16.806">
  <g id="Icon_ionic-ios-videocam" data-name="Icon ionic-ios-videocam" transform="translate(-1.5 -8.25)">
    <path id="Path_19206" data-name="Path 19206" d="M30.632,10.8a1.021,1.021,0,0,0-.556.161L24.9,14.226a.512.512,0,0,0-.239.43V19.2a.512.512,0,0,0,.239.43L30.076,22.9a1.075,1.075,0,0,0,.556.161h1.244a.509.509,0,0,0,.514-.508V11.308a.513.513,0,0,0-.514-.508Z" transform="translate(-3.355 -0.269)" fill="none" stroke="#c7d0fe" stroke-width="1.5"/>
    <path id="Path_19207" data-name="Path 19207" d="M16.689,24.306H5.329A3.089,3.089,0,0,1,2.25,21.233V12.073A3.084,3.084,0,0,1,5.323,9h11.36a3.084,3.084,0,0,1,3.073,3.073v9.154A3.076,3.076,0,0,1,16.689,24.306Z" fill="none" stroke="#c7d0fe" stroke-width="1.5"/>
  </g>
</svg>
