<svg xmlns="http://www.w3.org/2000/svg" width="26.21" height="21.445" viewBox="0 0 26.21 21.445">
  <g id="Icon_material-photo-camera" data-name="Icon material-photo-camera" transform="translate(-2 -3)">
    <path id="Path_19012" data-name="Path 19012" d="M20.825,17.012A3.812,3.812,0,1,1,17.012,13.2,3.812,3.812,0,0,1,20.825,17.012Z" transform="translate(-1.907 -2.099)" fill="#4a4e84"/>
    <path id="Path_19013" data-name="Path 19013" d="M11.531,3,9.351,5.383H4.383A2.39,2.39,0,0,0,2,7.766v14.3a2.39,2.39,0,0,0,2.383,2.383H25.828a2.39,2.39,0,0,0,2.383-2.383V7.766a2.39,2.39,0,0,0-2.383-2.383H20.86L18.679,3Zm3.574,17.871a5.957,5.957,0,1,1,5.957-5.957A5.959,5.959,0,0,1,15.105,20.871Z" fill="#4a4e84"/>
  </g>
</svg>
