<svg xmlns="http://www.w3.org/2000/svg" width="156" height="156" viewBox="0 0 156 156">
  <g id="Group_8229" data-name="Group 8229" transform="translate(-882 -278)">
    <path id="Path_19468" data-name="Path 19468" d="M78,0A78,78,0,1,1,0,78,78,78,0,0,1,78,0Z" transform="translate(882 278)" fill="#8588af"/>
    <path id="Icon_awesome-user-circle" data-name="Icon awesome-user-circle" d="M72.031.563a72.031,72.031,0,1,0,72.031,72.031A72.019,72.019,0,0,0,72.031.563Zm0,22.883a25.56,25.56,0,1,1-25.56,25.559A25.56,25.56,0,0,1,72.031,23.446Zm0,94.914A55.658,55.658,0,0,1,29.481,98.551,32.383,32.383,0,0,1,58.09,81.183a7.107,7.107,0,0,1,2.062.319,38.456,38.456,0,0,0,11.879,2,38.31,38.31,0,0,0,11.879-2,7.106,7.106,0,0,1,2.062-.319,32.383,32.383,0,0,1,28.609,17.369A55.658,55.658,0,0,1,72.031,118.36Z" transform="translate(888.148 283.542)" fill="#e1e6ff"/>
  </g>
</svg>
