<svg xmlns="http://www.w3.org/2000/svg" width="70" height="70" viewBox="0 0 70 70">
  <g id="Group_8862" data-name="Group 8862" transform="translate(-487 -1177)">
    <g id="Ellipse_702" data-name="Ellipse 702" transform="translate(487 1177)" fill="none" stroke="#c7d0fe" stroke-width="2">
      <circle cx="35" cy="35" r="35" stroke="none"/>
      <circle cx="35" cy="35" r="34" fill="none"/>
    </g>
    <path id="Path_20221" data-name="Path 20221" d="M532.693,27.728l-6.2-.214.019-1.012a6.2,6.2,0,0,0-.182-2.086c-.127-.346-.433-.489-.919-.513a.928.928,0,0,0-.857.414,2.145,2.145,0,0,0-.3,1.249,2.619,2.619,0,0,0,.563,1.979,24.708,24.708,0,0,0,3.317,2.292,26.814,26.814,0,0,1,3.181,2.228,5.786,5.786,0,0,1,1.4,2.129,8.859,8.859,0,0,1,.538,3.356,7.261,7.261,0,0,1-1.705,4.956,7.418,7.418,0,0,1-4.838,2.1l-.065,2.257-2.863-.079.046-2.305a7.654,7.654,0,0,1-4.295-1.975c-1.222-1.1-1.782-3-1.731-5.671l.014-1.178,6.2.214L524,37.327a12.744,12.744,0,0,0,.126,3,.845.845,0,0,0,.922.6,1.028,1.028,0,0,0,.925-.382,1.931,1.931,0,0,0,.315-1.2,10.615,10.615,0,0,0-.223-2.881,4.267,4.267,0,0,0-1.95-1.936,44.7,44.7,0,0,1-3.813-2.647,6.941,6.941,0,0,1-1.729-2.322,7.212,7.212,0,0,1-.671-3.337,5.537,5.537,0,0,1,1.662-4.16,7.785,7.785,0,0,1,4.749-1.731l.025-1.908,2.864.079-.025,1.907a6.77,6.77,0,0,1,4.245,1.992,5.961,5.961,0,0,1,1.351,4.186C532.767,26.864,532.727,27.213,532.693,27.728Z" transform="translate(-3.535 1179.361)" fill="#c7d0fe"/>
  </g>
</svg>
